<svg id="Layer_1" data-name="Layer 1" xmlns="http://www.w3.org/2000/svg" viewBox="0 0 407.03 430.62"><defs><style>.cls-1{fill:#ffc727;}.cls-2{fill:#263238;}.cls-3{fill:#37474f;}.cls-4{fill:#fff;}.cls-5{fill:#455a64;}.cls-6{fill:#ebebeb;}.cls-7{fill:#c7c7c7;}.cls-8{opacity:0.1;isolation:isolate;}.cls-9{fill:#ad6359;}.cls-10{fill:#a6a6a6;}.cls-11{fill:#dbdbdb;}.cls-12{fill:#ff9cbd;}</style></defs><g id="freepik--Plant--inject-2"><path class="cls-1" d="M401.83,354.74A43.73,43.73,0,0,1,401,371.6a46.89,46.89,0,0,1-2.58,7.45c-1.34,3.09-2.74,6.1-2.41,9.47.33.22-.79.19-.83-.14-9-5.14-20.58-6.08-27.52-14.48-3.29-4-5-9-5.74-14-.85-5.49-1.09-11.57.33-17,1.19-4.57,3.87-9,8.16-11.23s10.25-2.11,14.93-.66C395.4,334.11,400.41,345,401.83,354.74Z" transform="translate(-45.53 -56.36)"/><path class="cls-2" d="M406.47,421.51c-1.24-4.1-2.47-8.21-3.73-12.3-2.47-8-5.05-16-7.9-23.9q-2.55-7.1-5.39-14.05a87.75,87.75,0,0,1,1.07-8.71c.76-3.5,1.85-6.88,2.87-10.3.06-.21-.28-.32-.36-.12-2,4.71-4.67,10.74-4.74,16.33-2.2-5.25-4.55-10.42-7.09-15.52a66.42,66.42,0,0,1,.4-12.92c0-.2-.27-.26-.3-.06a45.5,45.5,0,0,0-.88,11.41q-2.91-5.75-6.16-11.34c-.2-.33-.66,0-.49.34q5.09,9.79,9.49,19.94a43.5,43.5,0,0,0-14.15-8.18c-.22-.09-.39.24-.16.34a51.67,51.67,0,0,1,15.3,10.12q3.18,7.43,6.06,15c-5.65-5.53-13.37-9.17-20.84-11.12-.25-.07-.32.32-.08.4,8.65,2.6,15.37,7.5,21.94,13.39.76,2,1.51,4.07,2.25,6.1q4.17,11.59,8,23.33,1.82,5.63,3.58,11.26c1.26,4.05,2.25,8.32,3.89,12.22.15.38.82.29.74-.15A118.12,118.12,0,0,0,406.47,421.51Z" transform="translate(-45.53 -56.36)"/><path class="cls-2" d="M391.5,346.84a22.59,22.59,0,0,0-3.25,8.1c0,.07.11.12.13,0a69.5,69.5,0,0,1,3.53-7.94C392,346.77,391.66,346.61,391.5,346.84Z" transform="translate(-45.53 -56.36)"/><path class="cls-2" d="M375.41,365.63a23.89,23.89,0,0,0-8.09-2.72c-.08,0-.12.1-.05.13,1.31.54,2.67.92,4,1.42s2.61,1.13,4,1.59a.24.24,0,0,0,.31-.12A.23.23,0,0,0,375.41,365.63Z" transform="translate(-45.53 -56.36)"/><path class="cls-2" d="M370.88,343a15.52,15.52,0,0,0-2.61-1.61.14.14,0,0,0-.15.23,16.11,16.11,0,0,0,2.57,1.66C370.86,343.41,371,343.13,370.88,343Z" transform="translate(-45.53 -56.36)"/><path class="cls-1" d="M432.24,385.37c-6.49,1.93-13,3.71-19.52,5.62-.56.17-11.54-20.88-7.58-31.72,3.67-10,12.07-17.54,22.09-20.95,4.63-1.57,10.34-2.9,15.24-1.82,4.35,1,7.43,4.53,8.85,8.63,1.93,5.57,1.28,12.21.23,17.9a31.24,31.24,0,0,1-6.39,14.61C441.71,381.74,437.31,383.87,432.24,385.37Z" transform="translate(-45.53 -56.36)"/><path class="cls-2" d="M441.66,365.37a87,87,0,0,1-12.74,5,53.56,53.56,0,0,0-8.5,3.07c2.74-6.11,5.76-12.1,8.95-18,4.2-1.22,8.61-3.11,11.78-6.08a.18.18,0,1,0-.24-.28c-3.46,2.45-7.28,3.92-11.11,5.57.87-1.59,1.74-3.19,2.63-4.78.24-.44-.37-.88-.66-.45a135.31,135.31,0,0,0-9.23,15.5,70.29,70.29,0,0,1-.67-14.2.1.1,0,0,0-.13-.06.09.09,0,0,0-.06.06,47.28,47.28,0,0,0,.16,15.61c-2.28,4.55-4.36,9.21-6.22,13.92-.74-2.83-1.7-5.62-2.35-8.48a38.94,38.94,0,0,1-.93-12.5.1.1,0,0,0-.13-.06.09.09,0,0,0-.06.06,44.09,44.09,0,0,0,2.73,23c-1.09,2.84-2.12,5.69-3.07,8.54a170.62,170.62,0,0,0-8.62,45.08.27.27,0,1,0,.54,0,224,224,0,0,1,9.69-44.55c1.88-5.66,4.05-11.16,6.43-16.56,3.83-1.13,7.66-2.67,11.43-4s7.44-2.75,10.53-5.17A.14.14,0,0,0,441.66,365.37Z" transform="translate(-45.53 -56.36)"/><path class="cls-2" d="M447.72,359.26c-4,1.41-7.74,3.39-11.71,4.82-.18.07-.08.36.11.33,4.2-.87,8.37-2.17,11.75-4.92C448,359.38,447.86,359.21,447.72,359.26Z" transform="translate(-45.53 -56.36)"/><path class="cls-2" d="M415.28,350.69c.05-.21-.26-.33-.33-.12-1.09,3.66-1.84,7.55-.78,11.29,0,.15.27.16.28,0C414.64,358.07,414.43,354.4,415.28,350.69Z" transform="translate(-45.53 -56.36)"/><path class="cls-2" d="M431.69,342.23a9.64,9.64,0,0,0-1.72,6.22c0,.14.23.23.27.06.48-2.09,1.29-4,1.93-6a.28.28,0,0,0-.48-.28Z" transform="translate(-45.53 -56.36)"/><path class="cls-1" d="M355,394.65c1.91,6.05,6.43,14.4,13.6,14.47,4.64,0,9.32-.51,14-.57,5-.08,10-.07,15,.23.41,0-.6-14.93-12.58-22.22-3.36-2-7.47-2.68-11.28-3.51a52.37,52.37,0,0,0-13.32-1.39c-2.75.11-5,.7-6,3.52S354.06,391.78,355,394.65Z" transform="translate(-45.53 -56.36)"/><path class="cls-2" d="M360.13,387.09c2.91.75,5.85,1.61,8.77,2.54a31.55,31.55,0,0,0-2.41-2.36c-1.26-1-2.64-1.88-4-2.79-.11-.08,0-.29.1-.24a16.46,16.46,0,0,1,7.07,5.63c3.64,1.17,7.25,2.47,10.73,3.9a40.44,40.44,0,0,1,6.86,3.61,26.84,26.84,0,0,0-2.48-4.32c-1.59-2.06-3.75-3.21-5.83-4.67a.19.19,0,0,1,0-.27.21.21,0,0,1,.2-.05,17.06,17.06,0,0,1,9.35,10.13,39.49,39.49,0,0,1,6.8,6.18c7.93,9,14.17,21,14.19,33.22,0,.29-.46.37-.52.07a67.88,67.88,0,0,0-15.12-32.49c-.57-.66-1.15-1.29-1.75-1.9a51.27,51.27,0,0,0-6.55-.48c-2.55,0-5.08.37-7.62.58-4.19.34-8.81.39-12.59-1.72-.16-.09-.05-.38.14-.31,8.41,3.06,17.23-.83,25.67,1a39.52,39.52,0,0,0-12.44-8l-.77-.31c-5.4.65-11.1,2-16.36.3a.12.12,0,0,1-.07-.17.13.13,0,0,1,.13-.08c5.09,1.27,10-.33,15-.58-5.46-2.13-11-3.82-16.5-5.93C359.64,387.38,359.63,387,360.13,387.09Z" transform="translate(-45.53 -56.36)"/><path class="cls-2" d="M357.74,392.41a73.83,73.83,0,0,0,7.86.59.06.06,0,0,1,0,.11,16.4,16.4,0,0,1-7.93-.5.1.1,0,0,1-.06-.13.09.09,0,0,1,.13-.07Z" transform="translate(-45.53 -56.36)"/><path class="cls-2" d="M375.5,387.22a12.79,12.79,0,0,1,3.89,2.71c.13.12-.05.36-.2.25-.66-.48-1.34-.93-2-1.37a17.86,17.86,0,0,1-1.9-1.2A.23.23,0,0,1,375.5,387.22Z" transform="translate(-45.53 -56.36)"/><path class="cls-1" d="M417.82,406.68c-.09.2.2.39.31.18h0a.28.28,0,0,0,.19.12A119.81,119.81,0,0,0,433,409.52c4,.36,8.53.58,12-1.72,4.7-3.12,7.79-11.45,5.25-16.75-3-6.29-12.07-2.87-16.61-.64A33.36,33.36,0,0,0,417.82,406.68Z" transform="translate(-45.53 -56.36)"/><path class="cls-2" d="M414.3,409.59a47.25,47.25,0,0,1,8.75-6.66,29.94,29.94,0,0,1,8.86-9c.18-.12.32.15.17.27a40.36,40.36,0,0,0-7.48,7.8,83.76,83.76,0,0,1,11-5,14.57,14.57,0,0,1,5.9-5.9s.11,0,.06.08a24.1,24.1,0,0,0-5.32,5.58c2.22-.83,4.48-1.6,6.73-2.35.2-.06.27.24.08.32-4,1.56-8.1,3.21-12.07,5.12a46.55,46.55,0,0,0,14.62-.05c.13,0,.19.17.06.21a28.87,28.87,0,0,1-15.51.23,73.6,73.6,0,0,0-7.36,4.12,18.6,18.6,0,0,1,5.95.49A45.39,45.39,0,0,0,439.19,406a.12.12,0,0,1,0,.24c-6.06,1-11.79-1.71-17.8-1a46.45,46.45,0,0,0-6.25,5.11A47.23,47.23,0,0,0,406,423.29c-2.53,5.15-3.9,10.6-5.94,15.92a.2.2,0,0,1-.23.14.19.19,0,0,1-.14-.24C401.45,428.63,406.67,417.06,414.3,409.59Z" transform="translate(-45.53 -56.36)"/><path class="cls-2" d="M432.58,395.21a6.83,6.83,0,0,1,1.55-1.88,6.18,6.18,0,0,1,1.79-1.34.07.07,0,0,1,.08,0,.07.07,0,0,1,0,.06c-.5.57-1.19,1-1.72,1.52s-1,1.18-1.54,1.71C432.65,395.4,432.54,395.3,432.58,395.21Z" transform="translate(-45.53 -56.36)"/><path class="cls-2" d="M442.58,398.47c.89-.23,1.85-.21,2.76-.4s1.78-.52,2.68-.8a.11.11,0,0,1,.13.09.1.1,0,0,1,0,.11,8.85,8.85,0,0,1-5.52,1.28.14.14,0,0,1,0-.28Z" transform="translate(-45.53 -56.36)"/><polygon class="cls-3" points="343.8 369.83 344.6 378.86 347.3 409.36 371.18 409.36 374.56 378.86 375.55 369.83 343.8 369.83"/><polygon class="cls-2" points="343.8 369.83 344.6 378.86 374.56 378.86 375.55 369.83 343.8 369.83"/><rect class="cls-3" x="341.44" y="367.36" width="36.48" height="7.33"/></g><g id="freepik--Floor--inject-2"><polygon class="cls-2" points="1.91 409.36 52.55 409.12 103.19 409.03 204.47 408.86 305.75 409.03 356.39 409.12 407.03 409.36 356.39 409.61 305.75 409.7 204.47 409.86 103.19 409.7 52.55 409.61 1.91 409.36"/></g><g id="freepik--Screen--inject-2"><rect class="cls-4" x="20.33" y="0.27" width="368.27" height="232.98"/><path class="cls-2" d="M434.14,289.61l-368.28.15h-.15v-.15l-.09-233v-.25h.24l368.28.15h.09v.1Zm0,0-.1-233,.1.09-368.28.15.25-.24-.09,233-.16-.16Z" transform="translate(-45.53 -56.36)"/><rect class="cls-2" x="20.33" y="0.27" width="368.27" height="8.96"/><path class="cls-1" d="M74.51,61.11A1.81,1.81,0,1,1,72.7,59.3a1.81,1.81,0,0,1,1.81,1.81Z" transform="translate(-45.53 -56.36)"/><path class="cls-4" d="M81.89,61.11a1.81,1.81,0,1,1-1.81-1.81h0a1.81,1.81,0,0,1,1.81,1.79Z" transform="translate(-45.53 -56.36)"/><path class="cls-5" d="M89.26,61.11a1.81,1.81,0,1,1-1.81-1.81h0a1.81,1.81,0,0,1,1.81,1.79Z" transform="translate(-45.53 -56.36)"/><rect class="cls-6" x="93.76" y="121.98" width="38.06" height="49.91"/><rect class="cls-6" x="139.6" y="121.98" width="38.06" height="49.91"/><rect class="cls-6" x="185.44" y="121.98" width="38.06" height="49.91"/><rect class="cls-6" x="231.28" y="121.98" width="38.06" height="49.91"/><rect class="cls-6" x="277.12" y="121.98" width="38.06" height="49.91"/><rect class="cls-1" x="177.41" y="189.36" width="54.12" height="16.96"/><path class="cls-4" d="M234.47,255.51a.44.44,0,0,1,.62-.06h0a2.77,2.77,0,0,0,1.6.65,1.79,1.79,0,0,0,1-.31.79.79,0,0,0,.36-.61.52.52,0,0,0-.07-.27,1,1,0,0,0-.25-.25,3.41,3.41,0,0,0-1.15-.39h0a5.18,5.18,0,0,1-1.08-.33,1.77,1.77,0,0,1-.78-.65,1.4,1.4,0,0,1-.19-.69,1.51,1.51,0,0,1,.67-1.22,2.42,2.42,0,0,1,1.45-.45,3.38,3.38,0,0,1,1.83.67.42.42,0,0,1,.11.6h0a.42.42,0,0,1-.58.14h0a2.47,2.47,0,0,0-1.35-.54,1.67,1.67,0,0,0-.94.28.65.65,0,0,0-.32.53.5.5,0,0,0,.06.24.77.77,0,0,0,.23.21,2.82,2.82,0,0,0,1,.37h0a5.18,5.18,0,0,1,1.16.35,2,2,0,0,1,.84.7,1.36,1.36,0,0,1,.2.71,1.65,1.65,0,0,1-.72,1.3,2.68,2.68,0,0,1-1.55.48,3.62,3.62,0,0,1-2.15-.84A.45.45,0,0,1,234.47,255.51Z" transform="translate(-45.53 -56.36)"/><path class="cls-4" d="M242.67,257a2.42,2.42,0,0,1-2.42-2.42h0v-3a.45.45,0,0,1,.44-.46h0a.47.47,0,0,1,.47.46v3a1.5,1.5,0,0,0,3,0v-3a.48.48,0,0,1,.53-.4.47.47,0,0,1,.4.4v3a2.43,2.43,0,0,1-2.43,2.43Z" transform="translate(-45.53 -56.36)"/><path class="cls-4" d="M247.06,256.51v-4.95a.47.47,0,0,1,.46-.46h1.19a1.62,1.62,0,0,1,1.27,2.59,1.8,1.8,0,0,1,.58,2.47A1.82,1.82,0,0,1,249,257h-1.48a.47.47,0,0,1-.46-.48Zm.93-3.14h.72a.67.67,0,0,0,.66-.68h0a.67.67,0,0,0-.66-.66H248Zm0,2.67h1a.87.87,0,0,0,0-1.74h-1Z" transform="translate(-45.53 -56.36)"/><path class="cls-4" d="M257.08,251.56v4.95a.47.47,0,0,1-.93,0V253l-1.21,1.67a.43.43,0,0,1-.37.2h0a.5.5,0,0,1-.39-.2L253,253v3.53a.48.48,0,0,1-.53.4.47.47,0,0,1-.4-.4v-4.95a.48.48,0,0,1,.46-.46h0a.44.44,0,0,1,.37.19l1.67,2.32,1.66-2.32a.47.47,0,0,1,.38-.19h0A.47.47,0,0,1,257.08,251.56Z" transform="translate(-45.53 -56.36)"/><path class="cls-4" d="M259.16,251.56a.45.45,0,0,1,.44-.46h0a.47.47,0,0,1,.47.46v4.95a.47.47,0,0,1-.47.46.45.45,0,0,1-.46-.44v-5Z" transform="translate(-45.53 -56.36)"/><path class="cls-4" d="M265.24,252h-1.33v4.48a.45.45,0,0,1-.44.46h0a.47.47,0,0,1-.46-.46V252h-1.32a.47.47,0,0,1-.46-.47.45.45,0,0,1,.44-.46h3.59a.45.45,0,0,1,.46.44v0A.47.47,0,0,1,265.24,252Z" transform="translate(-45.53 -56.36)"/><path class="cls-6" d="M257.06,120.48v7.61H254.9v-7.61a4.91,4.91,0,0,0-9.8-.63q0,.32,0,.63v7.61h-2.16v-7.61a7.07,7.07,0,1,1,14.12-.75Q257.08,120.11,257.06,120.48Z" transform="translate(-45.53 -56.36)"/><polygon class="cls-7" points="197.41 66.09 199.57 66.18 199.57 71.73 197.41 71.73 197.41 66.09"/><polygon class="cls-7" points="211.53 66.67 211.53 71.73 209.37 71.73 209.37 66.58 211.53 66.67"/><rect class="cls-1" x="194.66" y="68.91" width="19.63" height="16.29"/><path class="cls-2" d="M250.83,133.31l.82,3.89h-3.49l.83-3.89a1.74,1.74,0,1,1,2.67-1.49A1.76,1.76,0,0,1,250.83,133.31Z" transform="translate(-45.53 -56.36)"/></g><g id="freepik--speech-bubble--inject-2"><polygon class="cls-4" points="166.68 159.65 166.68 176.47 171.11 176.47 171.11 184.14 178.78 176.47 230.85 176.47 230.85 159.65 166.68 159.65"/><path class="cls-2" d="M212.21,216c0,5.67.2,11.28.21,16.82l-.21-.21h4.65v7.89l-.42-.18,7.64-7.68.08-.08h.12l26-.06h26l-.36.36V216l.32.31-32-.11Zm0,0,32-.2,32.17-.11h.31V216l.05,16.82v.36H250.38l-26-.06.19-.08-7.69,7.65-.41.41v-8.25l.22.22H212v-.21C212,227.16,212.17,221.55,212.21,216Z" transform="translate(-45.53 -56.36)"/><path class="cls-2" d="M223.43,222.09v2.26h-.64v-2.26a1.46,1.46,0,1,0-2.91-.24,1,1,0,0,0,0,.24v2.26h-.64v-2.26a2.1,2.1,0,1,1,4.19-.29A1.41,1.41,0,0,1,223.43,222.09Z" transform="translate(-45.53 -56.36)"/><polygon class="cls-2" points="173.72 166.32 174.35 166.35 174.35 167.99 173.72 167.99 173.72 166.32"/><polygon class="cls-2" points="177.9 166.49 177.9 167.99 177.26 167.99 177.26 166.46 177.9 166.49"/><rect class="cls-2" x="172.9" y="167.16" width="5.81" height="4.83"/><path class="cls-2" d="M233.52,222.43A8.13,8.13,0,0,1,232,224.5a8,8,0,0,1-2.1,1.5,7.85,7.85,0,0,1,1.55-2.07A7.67,7.67,0,0,1,233.52,222.43Z" transform="translate(-45.53 -56.36)"/><path class="cls-2" d="M229.9,222.43A7.85,7.85,0,0,1,232,224a8,8,0,0,1,1.54,2.07,8,8,0,0,1-2.07-1.54A7.85,7.85,0,0,1,229.9,222.43Z" transform="translate(-45.53 -56.36)"/><path class="cls-2" d="M234.26,224.23a8.17,8.17,0,0,1-2.55.38,7.59,7.59,0,0,1-2.55-.38,9,9,0,0,1,5.1,0Z" transform="translate(-45.53 -56.36)"/><path class="cls-2" d="M231.71,221.68a8.69,8.69,0,0,1,0,5.1,9,9,0,0,1,0-5.1Z" transform="translate(-45.53 -56.36)"/><path class="cls-2" d="M242.32,222.43a7.6,7.6,0,0,1-1.54,2.07,8,8,0,0,1-2.07,1.54,8,8,0,0,1,1.54-2.07A7.6,7.6,0,0,1,242.32,222.43Z" transform="translate(-45.53 -56.36)"/><path class="cls-2" d="M238.71,222.43a8.84,8.84,0,0,1,3.61,3.61A8.84,8.84,0,0,1,238.71,222.43Z" transform="translate(-45.53 -56.36)"/><path class="cls-2" d="M243.07,224.23a8.17,8.17,0,0,1-2.55.38,7.59,7.59,0,0,1-2.55-.38,9,9,0,0,1,5.1,0Z" transform="translate(-45.53 -56.36)"/><path class="cls-2" d="M240.52,221.68a9,9,0,0,1,0,5.1,7.59,7.59,0,0,1-.38-2.55A8.17,8.17,0,0,1,240.52,221.68Z" transform="translate(-45.53 -56.36)"/><path class="cls-2" d="M251.13,222.43a7.6,7.6,0,0,1-1.54,2.07,8,8,0,0,1-2.07,1.54,8,8,0,0,1,1.54-2.07A7.6,7.6,0,0,1,251.13,222.43Z" transform="translate(-45.53 -56.36)"/><path class="cls-2" d="M247.52,222.43a8.84,8.84,0,0,1,3.61,3.61A8.84,8.84,0,0,1,247.52,222.43Z" transform="translate(-45.53 -56.36)"/><path class="cls-2" d="M251.88,224.23a8.17,8.17,0,0,1-2.55.38,7.68,7.68,0,0,1-2.56-.38,9,9,0,0,1,5.11,0Z" transform="translate(-45.53 -56.36)"/><path class="cls-2" d="M249.33,221.68a9,9,0,0,1,0,5.1A8.69,8.69,0,0,1,249.33,221.68Z" transform="translate(-45.53 -56.36)"/><path class="cls-2" d="M259.94,222.43a8.88,8.88,0,0,1-3.61,3.61,8,8,0,0,1,1.54-2.07A7.6,7.6,0,0,1,259.94,222.43Z" transform="translate(-45.53 -56.36)"/><path class="cls-2" d="M256.33,222.43a8.84,8.84,0,0,1,3.61,3.61,8.88,8.88,0,0,1-3.61-3.61Z" transform="translate(-45.53 -56.36)"/><path class="cls-2" d="M260.69,224.23a8.17,8.17,0,0,1-2.55.38,7.68,7.68,0,0,1-2.56-.38,9,9,0,0,1,5.11,0Z" transform="translate(-45.53 -56.36)"/><path class="cls-2" d="M258.14,221.68a9,9,0,0,1,0,5.1A8.69,8.69,0,0,1,258.14,221.68Z" transform="translate(-45.53 -56.36)"/><path class="cls-2" d="M268.75,222.43a8.88,8.88,0,0,1-3.61,3.61,8,8,0,0,1,1.54-2.07A7.6,7.6,0,0,1,268.75,222.43Z" transform="translate(-45.53 -56.36)"/><path class="cls-2" d="M265.14,222.43a7.6,7.6,0,0,1,2.07,1.54,8,8,0,0,1,1.54,2.07,8.88,8.88,0,0,1-3.61-3.61Z" transform="translate(-45.53 -56.36)"/><path class="cls-2" d="M269.5,224.23a8.23,8.23,0,0,1-2.56.38,7.59,7.59,0,0,1-2.55-.38,9,9,0,0,1,5.11,0Z" transform="translate(-45.53 -56.36)"/><path class="cls-2" d="M266.94,221.68a8.69,8.69,0,0,1,0,5.1A9,9,0,0,1,266.94,221.68Z" transform="translate(-45.53 -56.36)"/></g><g id="freepik--Character--inject-2"><polygon class="cls-7" points="96.38 362.8 38.63 409.36 41.89 409.36 108.58 362.8 96.38 362.8"/><polygon class="cls-7" points="101.8 362.8 73.27 409.36 76.52 409.36 111.5 362.8 101.8 362.8"/><polygon class="cls-7" points="115.79 362.8 144.32 409.36 141.07 409.36 106.1 362.8 115.79 362.8"/><polygon class="cls-7" points="120.78 362.8 178.52 409.36 175.27 409.36 108.58 362.8 120.78 362.8"/><polygon class="cls-5" points="217.15 345.72 217.15 332.1 137.86 328.85 95.97 217.02 0 217.02 33.96 345.72 115.08 368.5 120.17 368.5 217.15 345.72"/><polygon class="cls-8" points="0 217.02 10.98 217.02 46.36 334.34 118.13 354.67 217.15 332.1 217.15 345.72 120.17 368.5 115.08 368.5 33.96 345.72 0 217.02"/><path class="cls-9" d="M219.51,486.9c-2.42-.93-56.85-45.52-57.85-48.53-.39-1.14,5.64-9.45,13.22-19.28,1.63-2.12,3.34-4.3,5.08-6.51,11.28-14.34,23.59-29.29,23.59-29.29L240.05,413l-24.6,28.47-5.4,6.25s13.21,26.4,13.95,29.82S221.93,487.82,219.51,486.9Z" transform="translate(-45.53 -56.36)"/><path class="cls-6" d="M219.51,486.9c-2.42-.93-56.85-45.52-57.85-48.53-.47-1.4,8.54-13.37,18.3-25.79l35.49,28.91-5.4,6.25s13.21,26.4,13.95,29.82S221.93,487.82,219.51,486.9Z" transform="translate(-45.53 -56.36)"/><path class="cls-1" d="M219.51,486.9c-2.42-.93-56.85-45.52-57.85-48.53-.39-1.14,5.64-9.45,13.22-19.28l35.17,28.65s13.21,26.4,13.95,29.82S221.93,487.82,219.51,486.9Z" transform="translate(-45.53 -56.36)"/><path class="cls-2" d="M220.52,484.08c-9-7.7-45.73-37.91-55.16-44.84-.07-.06-.11,0,0,.05,8.64,7.83,45.64,37.71,55,44.94C220.59,484.38,220.7,484.24,220.52,484.08Z" transform="translate(-45.53 -56.36)"/><path class="cls-2" d="M222.1,472.73a9.47,9.47,0,0,0-7.28-2.24,9.16,9.16,0,0,0-6,3.2c0,.05.06.14.11.09a10.92,10.92,0,0,1,13.11-.93.07.07,0,0,0,.1,0,.08.08,0,0,0,0-.1Z" transform="translate(-45.53 -56.36)"/><path class="cls-2" d="M212.85,451.55c-3.61-3.05-8.9-5.23-13.62-4.1-.18.05-.11.3,0,.34a65.18,65.18,0,0,1,13.27,4.26.31.31,0,1,0,.35-.5Z" transform="translate(-45.53 -56.36)"/><path class="cls-2" d="M214.77,455c-3.61-3-8.9-5.23-13.62-4.1-.18,0-.12.3,0,.34a65.18,65.18,0,0,1,13.27,4.26.31.31,0,1,0,.35-.5Z" transform="translate(-45.53 -56.36)"/><path class="cls-2" d="M216.69,458.37c-3.61-3.05-8.9-5.23-13.62-4.1-.18,0-.12.3,0,.34a65.18,65.18,0,0,1,13.27,4.26.31.31,0,1,0,.35-.5Z" transform="translate(-45.53 -56.36)"/><path class="cls-2" d="M218.61,461.77c-3.61-3-8.9-5.22-13.62-4.09-.18,0-.12.3,0,.33a65.83,65.83,0,0,1,13.27,4.27.31.31,0,1,0,.35-.51Z" transform="translate(-45.53 -56.36)"/><path class="cls-4" d="M174.79,432.47c-4.11-3.34-9.31,3-5.2,6.39S178.9,435.82,174.79,432.47Z" transform="translate(-45.53 -56.36)"/><path class="cls-2" d="M224.78,445c-.59-3.05-4.15-3.46-6.59-2.8a24.68,24.68,0,0,0-11,6.62.11.11,0,0,0,0,.15l0,0a.58.58,0,0,0,.41.84c4.08.33,8.39,1.19,12.44.26C222.47,449.61,225.34,447.92,224.78,445Zm-10.84,4.09c-2-.12-4-.33-6-.37a74.6,74.6,0,0,1,6.49-3.73,27.2,27.2,0,0,1,3.36-1.37c1.78-.55,7.86-.67,5,3.6-1.63,2.4-6.46,2-8.85,1.91Z" transform="translate(-45.53 -56.36)"/><path class="cls-2" d="M197,442.78c2.78,3.09,6.8,4.87,10.32,7a.57.57,0,0,0,.77-.28.43.43,0,0,0,0-.16.12.12,0,0,0,.13-.15,24.76,24.76,0,0,0-5.15-11.73c-1.62-2-4.76-3.66-7-1.51S195.41,441,197,442.78Zm-.51-3.89c.1-5.16,5-1.56,6.14-.08a29.22,29.22,0,0,1,2,3.06c1.24,2.18,2.14,4.49,3.16,6.78-1.67-1.13-3.42-2.1-5.13-3.16-2-1.27-6.18-3.76-6.13-6.6Z" transform="translate(-45.53 -56.36)"/><path class="cls-2" d="M278,357.17c-2.76,19.12-50.61,73.82-56.14,80.09-.82.92-1.26,1.43-1.26,1.43l-38.67-30.47.46-.58,34.92-44.58-102.52-1.85,39.3-29.8s3.13,1.86,9.71,1c22.66-3,73.76-9.75,85.79-9.12C265.05,324.11,280.48,339.63,278,357.17Z" transform="translate(-45.53 -56.36)"/><path class="cls-3" d="M229.8,346.48a45.78,45.78,0,0,0-3.6,4.5c-1.23,1.58-2.49,3.14-3.72,4.72v.05c.22-.47.43-.93.66-1.39.79-1.58,1.42-3.21,2.34-4.72a.1.1,0,0,0,0-.12.08.08,0,0,0-.11,0c-1,1.5-2,2.92-2.86,4.49-.38.74-.75,1.49-1.09,2.25-.18.42-.37.84-.54,1.27a4.49,4.49,0,0,0-.23.61c-.56.73-1.1,1.47-1.63,2.22-1.18,1.66-2.22,3.42-3.42,5.07-.06.08.08.17.15.09,1.2-1.55,2.55-3,3.77-4.53s2.43-3.18,3.6-4.8,2.26-3.18,3.4-4.77a47.27,47.27,0,0,0,3.44-4.89.08.08,0,0,0,0-.11.07.07,0,0,0-.1,0Z" transform="translate(-45.53 -56.36)"/><path class="cls-3" d="M225.88,429.71c-2.2-1.92-4.56-3.69-6.88-5.47s-4.66-3.57-7-5.33c-4.69-3.53-9.37-7.09-14.11-10.55-2.6-1.91-5.22-3.78-7.93-5.55-.12-.07-.25.12-.14.21,4.46,3.81,9.2,7.28,13.88,10.8s9.41,7,14.16,10.5c2.6,1.89,5.19,3.84,7.9,5.57C225.87,430,226,429.79,225.88,429.71Z" transform="translate(-45.53 -56.36)"/><path class="cls-9" d="M142.66,280.92c10.64,20.25,23.26,41.74,35.22,44.85,11.37,3,38.44-25.38,43-34.8,1.59-3.24-19.84-17.45-22.88-15.07-5.71,4.51-18.23,18.77-20,18.41s-17-13.88-30.67-25.25C139,262.17,135.3,266.89,142.66,280.92Z" transform="translate(-45.53 -56.36)"/><path class="cls-10" d="M201.9,243l-8.19,28.67a1,1,0,0,0,.25,1.39,1,1,0,0,0,.65.18l14.91.47a2.42,2.42,0,0,0,2.12-1.48l8.19-28.67c.34-.84-.07-1.54-.9-1.56L204,241.54A2.4,2.4,0,0,0,201.9,243Z" transform="translate(-45.53 -56.36)"/><path class="cls-11" d="M203.67,243.05l-8.19,28.67c-.33.84.07,1.54.9,1.57l14.92.47a2.42,2.42,0,0,0,2.11-1.48l8.19-28.67c.34-.84-.07-1.54-.9-1.56l-14.91-.47A2.41,2.41,0,0,0,203.67,243.05Z" transform="translate(-45.53 -56.36)"/><path class="cls-5" d="M207.72,244.5a1.27,1.27,0,1,1-2.54,0,1.09,1.09,0,0,1,0-.18,1.27,1.27,0,0,1,2.54,0A1.09,1.09,0,0,1,207.72,244.5Z" transform="translate(-45.53 -56.36)"/><path class="cls-9" d="M227.81,274.74c1.26-8.33.3-10.66,5.1-17.13,3.15-4.25,1.79-8.08-3.16-5.7-8.1,3.91-12,14.32-12.29,18.32Z" transform="translate(-45.53 -56.36)"/><path class="cls-9" d="M217.06,296.58s7.78-9.08,10-17.83c1.53-6.05,3.4-19.58-9.82-32.7-3.14-3.11-9.81-5.32-6.54,1.62,2.33,4.93,5.3,7.36,6.13,10.47,0,0-8.83-1.8-11.82,1.46a81.13,81.13,0,0,0-7.22,9.09,18.67,18.67,0,0,0,1.58,1.5s-2.51,3.32-2,9.62Z" transform="translate(-45.53 -56.36)"/><path class="cls-9" d="M227.6,272.75c-1.48-2.92-4.72-9.05-9.11-13.15-4.88-4.54-15.51-12-18.83-8.35-2.43,2.67,1.38,5.86,1.38,5.86s-5-2.15-6.72.74c-1.52,2.64,1.57,4.93,1.57,4.93s-3.28-.77-4.26,2.05c-1.18,3.39,5.9,4.46,7.67,8.93C199.7,274.76,227.6,272.75,227.6,272.75Z" transform="translate(-45.53 -56.36)"/><path class="cls-2" d="M214.54,265.56a26.54,26.54,0,0,0-13.37-8.49c-.14,0-.23.06-.12.11a64.93,64.93,0,0,1,13.45,8.43S214.56,265.59,214.54,265.56Z" transform="translate(-45.53 -56.36)"/><path class="cls-2" d="M209.81,270.35c-1.81-2-7.85-6.53-13.86-7.67-.13,0-.22.06-.1.11a71,71,0,0,1,13.92,7.61S209.83,270.38,209.81,270.35Z" transform="translate(-45.53 -56.36)"/><path class="cls-1" d="M190.65,279.59,213,303.26s-23.57,26.43-34.64,23.67-32-32.73-38.71-51.75C135,262,142.3,264.13,150,270.58s27.8,22.47,28.68,22.24S190.65,279.59,190.65,279.59Z" transform="translate(-45.53 -56.36)"/><path class="cls-8" d="M183.09,326.69a9.38,9.38,0,0,1-4.76.24c-11.07-2.76-32-32.72-38.71-51.75-3.06-8.67-.92-10.71,3.1-9.23C154.78,283.84,170.83,307.82,183.09,326.69Z" transform="translate(-45.53 -56.36)"/><path class="cls-2" d="M205.73,307.2c-3.23-3.27-16-17.11-18.52-20.28-.18-.22-.08-.39.13-.18,9.92,9.55,15.51,17,18.52,20.33C205.93,307.15,205.81,307.28,205.73,307.2Z" transform="translate(-45.53 -56.36)"/><path class="cls-1" d="M167.49,345S94.2,358.4,93.82,358s8.07-79.67,32.94-93.07c4-2.12,13.47-3.37,17.53.77C155.87,277.48,168.45,343.93,167.49,345Z" transform="translate(-45.53 -56.36)"/><path class="cls-6" d="M166.72,338.43,94.55,350.81c.27-2.18.63-4.78,1.08-7.71l69.76-12C165.93,333.9,166.37,336.37,166.72,338.43Z" transform="translate(-45.53 -56.36)"/><path class="cls-6" d="M164.62,327.27,96.28,339c.21-1.3.44-2.63.69-4l66.86-11.47C164.11,324.79,164.37,326.05,164.62,327.27Z" transform="translate(-45.53 -56.36)"/><path class="cls-9" d="M141.05,277.73c-4.09,0-9.3-7.54-10.76-13-.1-.37,1.24-3.71,2.68-7.85.86-2.51,1.76-5.33,2.39-8l15.54,8a43.17,43.17,0,0,0-4,9.72,5.2,5.2,0,0,0-.15,1.11v.18C146.54,270.09,145,277.74,141.05,277.73Z" transform="translate(-45.53 -56.36)"/><path class="cls-2" d="M150.91,257a42.72,42.72,0,0,0-4,9.72,5.2,5.2,0,0,0-.15,1.11V268a9.13,9.13,0,0,1-1.72-.31c-9.55-2.54-9.39-15.09-9.16-18.46Z" transform="translate(-45.53 -56.36)"/><path class="cls-9" d="M134.7,230.83c-2.49,5.78-1.24,23.42,2.59,27.75,5.56,6.27,15.61,7.91,21.17,1,5.4-6.68,3.36-29.64-1-33.67C151,220,138.37,222.28,134.7,230.83Z" transform="translate(-45.53 -56.36)"/><path class="cls-2" d="M150.79,243.52c0-.05-.08.06-.08.11.15,1.18.12,2.55-.91,3v.07C151.1,246.43,151.12,244.61,150.79,243.52Z" transform="translate(-45.53 -56.36)"/><path class="cls-2" d="M149.63,242.39c-1.91,0-1.71,3.84.06,3.81S151.23,242.36,149.63,242.39Z" transform="translate(-45.53 -56.36)"/><path class="cls-2" d="M157.73,243.14s.1.05.1.1c0,1.18.25,2.53,1.34,2.87v.07C157.85,246.06,157.57,244.26,157.73,243.14Z" transform="translate(-45.53 -56.36)"/><path class="cls-2" d="M158.72,241.85c1.89-.24,2.24,3.56.49,3.78S157.14,242.06,158.72,241.85Z" transform="translate(-45.53 -56.36)"/><path class="cls-2" d="M148,240.72a15.25,15.25,0,0,0,1.45-.6,2.46,2.46,0,0,0,1.36-.89.8.8,0,0,0-.18-1,2,2,0,0,0-2-.1,2.92,2.92,0,0,0-1.63,1.36.86.86,0,0,0,1,1.23Z" transform="translate(-45.53 -56.36)"/><path class="cls-2" d="M160.09,239.85c-.53-.06-1-.2-1.53-.31a2.61,2.61,0,0,1-1.51-.62.81.81,0,0,1,0-1,2,2,0,0,1,2-.49,3,3,0,0,1,1.85,1,.85.85,0,0,1-.06,1.21A.83.83,0,0,1,160.09,239.85Z" transform="translate(-45.53 -56.36)"/><path class="cls-2" d="M150.1,254c.24.32.46.73.88.83a3.17,3.17,0,0,0,1.3-.11m.05.06a1.6,1.6,0,0,1-1.58.43A1.25,1.25,0,0,1,150,254s.08,0,.12,0Z" transform="translate(-45.53 -56.36)"/><path class="cls-2" d="M151.4,250.55a4,4,0,0,0,2.78,1.64,5,5,0,0,0,1.45,0,3.1,3.1,0,0,0,.53-.1.3.3,0,0,0,.23-.27h0l-.21-2.52c.34.15,2.07.82,2,.34a60.54,60.54,0,0,0-2.2-12.09.12.12,0,0,0-.14-.09.12.12,0,0,0-.08.14c.28,3.78,1.22,7.49,1.56,11.29a7.19,7.19,0,0,0-1.93-.48c-.07,0,.34,3.09.33,3.12a5.58,5.58,0,0,1-4.23-1.08C151.42,250.37,151.33,250.46,151.4,250.55Z" transform="translate(-45.53 -56.36)"/><path class="cls-2" d="M155.25,252a4.93,4.93,0,0,1-2,1.56,2.18,2.18,0,0,1-1.38.09c-1-.25-1-1.16-.84-1.94a5.56,5.56,0,0,1,.44-1.2A6.55,6.55,0,0,0,155.25,252Z" transform="translate(-45.53 -56.36)"/><path class="cls-12" d="M153.25,253.57a2.18,2.18,0,0,1-1.38.09c-1-.25-1-1.16-.84-1.94A2.33,2.33,0,0,1,153.25,253.57Z" transform="translate(-45.53 -56.36)"/><path class="cls-2" d="M133.07,246.76c4.6.36,7-5.11,6-9.53,0,0,12.21,1.71,12.87-8.1a11.16,11.16,0,0,0,8.45,4.64l.81,3.45c1.26-.35,2.62-3.91-.43-6.73,0,0-.17-4.89-3.76-7.86a6.69,6.69,0,0,0-7.19-1.06,10.18,10.18,0,0,0-7.36-1.87,8.59,8.59,0,0,0-6.39,4.64s-6.07,1.11-7.13,5.41a8.89,8.89,0,0,0,1.14,7.2s-1.54,1.68-.79,5.36C129.77,244.67,131.69,246.65,133.07,246.76Z" transform="translate(-45.53 -56.36)"/><path class="cls-2" d="M151.68,228.25a12,12,0,0,1,0,2.4,10.15,10.15,0,0,1-.46,2.32,6.23,6.23,0,0,1-2.86,3.5,10,10,0,0,1-4.52,1.1c-.79,0-1.59,0-2.39-.08s-1.59-.19-2.39-.26c.78.19,1.57.36,2.36.54a19.44,19.44,0,0,0,2.42.23,9.84,9.84,0,0,0,4.8-1,6.52,6.52,0,0,0,3-3.86A9.87,9.87,0,0,0,151.68,228.25Z" transform="translate(-45.53 -56.36)"/><path class="cls-2" d="M157.94,234a12.71,12.71,0,0,1-3.69-2,8.18,8.18,0,0,1-1.43-1.51,9.25,9.25,0,0,1-1-1.86,5,5,0,0,0,.65,2.1,5.61,5.61,0,0,0,1.43,1.71,7.17,7.17,0,0,0,1.91,1.11A6.49,6.49,0,0,0,157.94,234Z" transform="translate(-45.53 -56.36)"/><path class="cls-1" d="M148.47,249.48a5.14,5.14,0,1,1,5.29-6.16h0a5.16,5.16,0,0,1-4,6.06A5.07,5.07,0,0,1,148.47,249.48Zm.47-9.59a4.13,4.13,0,0,0-1.11.09,4.44,4.44,0,1,0,1.11-.09Z" transform="translate(-45.53 -56.36)"/><path class="cls-1" d="M160.24,248.61c-2-.1-3.65-2.2-3.83-4.87a6,6,0,0,1,.84-3.66,3.22,3.22,0,0,1,4.33-1.38,3.32,3.32,0,0,1,1.14,1,6.25,6.25,0,0,1,1.33,3.51c.19,2.83-1.37,5.25-3.47,5.4Zm-.06-9.58h-.26a2.75,2.75,0,0,0-2.09,1.41,5.45,5.45,0,0,0-.74,3.25c.17,2.45,1.71,4.35,3.44,4.23s3-2.21,2.83-4.66a5.45,5.45,0,0,0-1.17-3.12,2.85,2.85,0,0,0-2-1.14Z" transform="translate(-45.53 -56.36)"/><path class="cls-1" d="M153.63,243.92l-.48-.49c.73-.71,2.47-1.71,3.82-.46l-.47.5C155.3,242.35,153.7,243.86,153.63,243.92Z" transform="translate(-45.53 -56.36)"/><path class="cls-1" d="M131.88,246.93l-.63-.28c.13-.29,1.29-2.88,2.81-3.24s9.64-.21,10-.2v.69a90.27,90.27,0,0,0-9.87.18C133.21,244.32,132.19,246.21,131.88,246.93Z" transform="translate(-45.53 -56.36)"/><path class="cls-9" d="M137.41,246.45s-3.41-6-6.08-4.79-.45,9.56,2.43,10.94a3,3,0,0,0,4.1-1.07,2,2,0,0,0,.11-.2Z" transform="translate(-45.53 -56.36)"/><path class="cls-2" d="M132,244.05s-.06.06,0,.08c2,1,2.94,3.07,3.53,5.15a1.68,1.68,0,0,0-2.22-.82l-.24.14a.08.08,0,0,0,0,.1s0,0,0,0a1.88,1.88,0,0,1,2,.83,9.79,9.79,0,0,1,.84,1.76c.08.19.42.12.37-.1v-.05C136.6,248.5,134.86,244.58,132,244.05Z" transform="translate(-45.53 -56.36)"/><path class="cls-2" d="M146.89,269.83c-.17,3.34-.78,11-6.15,10a11.7,11.7,0,0,1-5.52-3.4,42,42,0,0,1-7.17-10.3c-.05-.09-.17,0-.14.08a26.19,26.19,0,0,0,2.61,5.57,25.89,25.89,0,0,0,4.4,5.49,12.06,12.06,0,0,0,5.9,3.38,4.39,4.39,0,0,0,4.81-2.67,17.77,17.77,0,0,0,1.31-8.15Z" transform="translate(-45.53 -56.36)"/><path class="cls-9" d="M118.54,271.22c-11.44,10-40.77,49.5-33.57,57.95s52.47,2.59,65.48-2.08c3.88-1.39-7.86-25.84-12.14-26.81-3.58-.82-22.91,5.79-23.34,4.67s3.34-9.84,9.4-25.46C131.36,261.49,123.6,266.79,118.54,271.22Z" transform="translate(-45.53 -56.36)"/><path class="cls-9" d="M157.41,294.68c9.11-.35,11.5,1,19-3.42,4.94-2.87,8.9-.95,5.74,4.09-5.17,8.23-16.83,11.15-21.16,11Z" transform="translate(-45.53 -56.36)"/><path class="cls-9" d="M132.69,300.93S143.34,296.34,153,295c6.69-.92,21.46-1.31,34,14.48,3,3.75,4.54,11.19-2.53,6.83-5-3.09-7.27-6.57-10.52-7.84,0,0,.88,9.7-3,12.53a89.46,89.46,0,0,1-10.64,6.67,18.52,18.52,0,0,1-1.42-1.88s-3.86,2.3-10.57,1Z" transform="translate(-45.53 -56.36)"/><path class="cls-9" d="M159.53,295.15c3,1.94,9.16,6.16,13,11.37,4.3,5.79,11,18.11,6.72,21.24-3.16,2.3-6.14-2.18-6.14-2.18s1.7,5.67-1.61,7.12c-3,1.32-5.11-2.28-5.11-2.28s.45,3.62-2.7,4.34c-3.79.86-4.09-6.87-8.68-9.32C154,324.89,159.53,295.15,159.53,295.15Z" transform="translate(-45.53 -56.36)"/><path class="cls-2" d="M165.68,310a28.75,28.75,0,0,1,7.52,15.4c0,.15-.09.24-.13.11A71.56,71.56,0,0,0,165.63,310S165.66,310,165.68,310Z" transform="translate(-45.53 -56.36)"/><path class="cls-2" d="M160,314.56c1.94,2.18,6.08,9.21,6.59,15.81,0,.15-.1.24-.14.1a76,76,0,0,0-6.5-15.88S159.94,314.53,160,314.56Z" transform="translate(-45.53 -56.36)"/><path class="cls-2" d="M173.94,308.42c2.84,1.16,4.6,2.78,6.9,4.75a37.62,37.62,0,0,0,3.53,2.76c1.13.77,2.79,1.92,4.16,1a2.46,2.46,0,0,0,.78-2.34A11.82,11.82,0,0,0,188,311.1s.05-.08.07,0a16.63,16.63,0,0,1,1.47,3.14,4,4,0,0,1,0,2.31c-.59,1.57-2.52,1.59-3.82,1a12.59,12.59,0,0,1-2.19-1.34c-.67-.48-1.32-1-2-1.52-1.3-1.08-2.53-2.23-3.81-3.33a37.23,37.23,0,0,0-4-2.85.11.11,0,0,1,.19-.09Z" transform="translate(-45.53 -56.36)"/><path class="cls-2" d="M179,319.34a90.5,90.5,0,0,0-5.16-10.85m.07-.06a48.47,48.47,0,0,1,5.82,10.43,16.31,16.31,0,0,1,1.2,6.36c-.31,3.06-2.39,3.43-3.16,3.51a4,4,0,0,1-2.56-.69,7.83,7.83,0,0,1-2.13-2.45s0-.1.06-.06c.94,1.31,2.58,2.68,4.27,2.63a2.83,2.83,0,0,0,2-.83,3.57,3.57,0,0,0,.73-2.42,16.38,16.38,0,0,0-1.14-5.57Z" transform="translate(-45.53 -56.36)"/><path class="cls-1" d="M132.69,300.93l11.16,31.21S87.23,339,83.42,328.9s21.48-45.69,32.27-55.7c12.51-11.61,13.51-7.13,9.9,3.9-3.77,11.56-10.49,28.14-10.49,28.14Z" transform="translate(-45.53 -56.36)"/><path class="cls-2" d="M97.48,311.48a66.74,66.74,0,0,1,8.55-3.93,63.27,63.27,0,0,1,9-2.55c1.73-.39,3.47-.69,5.22-1,0,0,.06.07,0,.08a80,80,0,0,0-9,2.51c-3,1-5.88,2-8.77,3.07-1.65.62-3.26,1.3-4.88,2a.11.11,0,0,1-.13,0,.1.1,0,0,1,0-.14Z" transform="translate(-45.53 -56.36)"/><path class="cls-2" d="M132.55,300.83c-.29.05-15.93,3.53-16.45,3.71.08-.22,3.61-8,4.13-9.14l.15-.34,1-1.51c.34-.51.79-1.31,1.18-2h0l-1.26,1.91c-.19.3-.38.6-.56.91.35-.81.69-1.62,1-2.43.54-1.3,1-2.61,1.54-3.92m-.07,0c-1,2.27-2.15,4.5-3.19,6.77s-5,10.59-5,10.59,17.27-4.21,17.61-4.32a.12.12,0,0,0-.08-.23h0Z" transform="translate(-45.53 -56.36)"/><path class="cls-2" d="M131.62,320.36c-1.23-3.48-2.42-7-3.78-10.41-.77-1.95-1.53-3.9-2.31-5.85,0-.07-.16,0-.14,0,1.09,3.54,2.19,7.09,3.45,10.58s2.46,7,3.75,10.42q1.11,2.94,2.38,5.82c1.27,2.88.08,0,.07,0C134.07,327.36,132.85,323.87,131.62,320.36Z" transform="translate(-45.53 -56.36)"/><path class="cls-2" d="M144.52,332.67c-.46-1-1-2.36-1.53-3.31-.13-.26-.32-.22-.22,0,.34.87.59,1.84.93,2.74-.8.07-1.59.13-2.38.22l-2.75.29q-2.7.28-5.4.51-5.46.45-10.94.67a209.68,209.68,0,0,1-22-.14c-2-.13-4.09-.3-6.13-.53s-4.3-.51-6-.89c0,0-.07.07,0,.09a34,34,0,0,0,5.17,1.21c1.84.27,3.68.5,5.53.66,3.69.33,7.39.46,11.09.49q11,.09,22-.74c2.05-.15,4.09-.33,6.14-.53l3.09-.33A16.74,16.74,0,0,0,144.52,332.67Z" transform="translate(-45.53 -56.36)"/><rect class="cls-7" x="100.65" y="275.62" width="71.29" height="3.19"/><polygon class="cls-10" points="171.94 275.62 171.94 278.81 123.48 278.81 125.92 275.62 171.94 275.62"/><polygon class="cls-10" points="133.28 278.81 195.67 278.81 204.7 234.79 142.31 234.79 133.28 278.81"/><polygon class="cls-7" points="136.2 278.81 198.59 278.81 207.62 234.79 145.23 234.79 136.2 278.81"/><path class="cls-4" d="M223.06,311.52A4.37,4.37,0,0,1,220,316c-1.78.38-3.27-1-3.34-3.09a4.4,4.4,0,0,1,3.11-4.44C221.5,308.06,223,309.45,223.06,311.52Z" transform="translate(-45.53 -56.36)"/><path class="cls-9" d="M362.76,426.55c-.93,2.42-45.7,56.7-48.72,57.7-1.14.38-9.43-5.68-19.23-13.29-2.12-1.64-4.3-3.35-6.5-5.1-14.3-11.33-29.21-23.68-29.21-23.68l29.9-36.4,28.38,24.68,6.24,5.42S350,422.76,353.43,422,363.69,424.13,362.76,426.55Z" transform="translate(-45.53 -56.36)"/><path class="cls-6" d="M362.76,426.55c-.93,2.42-45.7,56.7-48.72,57.7-1.39.45-13.34-8.58-25.73-18.39l29-35.4,6.24,5.42S350,422.76,353.43,422,363.69,424.13,362.76,426.55Z" transform="translate(-45.53 -56.36)"/><path class="cls-1" d="M362.76,426.55c-.93,2.42-45.7,56.7-48.72,57.7-1.14.38-9.43-5.68-19.23-13.29l28.76-35.08S350,422.76,353.43,422,363.69,424.13,362.76,426.55Z" transform="translate(-45.53 -56.36)"/><path class="cls-2" d="M359.94,425.54c-7.73,8.91-38.05,45.6-45,55-.05.08,0,.12.06,0,7.85-8.67,37.89-45.61,45.11-54.93C360.25,425.46,360.11,425.35,359.94,425.54Z" transform="translate(-45.53 -56.36)"/><path class="cls-2" d="M348.6,423.91a9.51,9.51,0,0,0-2.27,7.28,9.2,9.2,0,0,0,3.18,6c.06,0,.14-.06.09-.11a11,11,0,0,1-.89-13.12C348.77,423.93,348.66,423.84,348.6,423.91Z" transform="translate(-45.53 -56.36)"/><path class="cls-2" d="M327.39,433.1c-3.06,3.6-5.25,8.88-4.14,13.6,0,.18.3.12.33,0a65.66,65.66,0,0,1,4.31-13.26.3.3,0,1,0-.5-.34Z" transform="translate(-45.53 -56.36)"/><path class="cls-2" d="M330.8,431.19c-3.05,3.6-5.25,8.88-4.14,13.6,0,.18.31.12.34,0a65,65,0,0,1,4.3-13.26.3.3,0,0,0-.5-.34Z" transform="translate(-45.53 -56.36)"/><path class="cls-2" d="M334.22,429.28c-3.06,3.6-5.25,8.88-4.14,13.6,0,.19.3.12.33,0a65,65,0,0,1,4.31-13.26.3.3,0,0,0-.5-.34Z" transform="translate(-45.53 -56.36)"/><path class="cls-2" d="M337.63,427.37c-3.05,3.6-5.25,8.89-4.14,13.61.05.18.31.12.34,0a65.63,65.63,0,0,1,4.3-13.26.31.31,0,1,0-.5-.35Z" transform="translate(-45.53 -56.36)"/><path class="cls-4" d="M308.19,471.1c-3.36,4.09,3,9.32,6.37,5.21S311.56,467,308.19,471.1Z" transform="translate(-45.53 -56.36)"/><path class="cls-2" d="M320.91,421.14c-3,.59-3.47,4.14-2.82,6.59a24.91,24.91,0,0,0,6.59,11c.07.07.15,0,.2,0a.57.57,0,0,0,.77-.24.49.49,0,0,0,.06-.17c.35-4.07,1.22-8.39.3-12.44C325.48,423.47,323.8,420.59,320.91,421.14ZM325,432c-.12,2-.34,4-.39,6a73,73,0,0,1-3.7-6.5,25.67,25.67,0,0,1-1.36-3.36c-.55-1.78-.65-7.87,3.62-5C325.48,424.78,325.11,429.6,325,432Z" transform="translate(-45.53 -56.36)"/><path class="cls-2" d="M318.57,448.88c3.1-2.77,4.89-6.78,7-10.3.22-.36-.1-.74-.44-.82a.13.13,0,0,0-.12-.14h0a24.78,24.78,0,0,0-11.75,5.12c-2,1.61-3.67,4.75-1.53,7S316.75,450.5,318.57,448.88Zm-3.89.49c-5.16-.11-1.54-5-.06-6.14a28.7,28.7,0,0,1,3.06-1.94,70.71,70.71,0,0,1,6.79-3.14c-1.13,1.66-2.11,3.41-3.17,5.11C320,445.29,317.52,449.43,314.68,449.37Z" transform="translate(-45.53 -56.36)"/><path class="cls-2" d="M315.87,424.9l-33.23,39.38L182.42,392.92l-9.88-7s-2.84,1.87-7.11,4.16c-5.93,3.19-14.62,7.21-22.27,8.24C130.32,400,111,399.58,100.37,385c-9-12.28-5.89-28.11-5.89-28.11L108.63,351s33.64-27.34,55.22-27.91c9.16-.26,22.42,6.85,34.68,14.25S315.87,424.9,315.87,424.9Z" transform="translate(-45.53 -56.36)"/><path class="cls-3" d="M172.54,385.88s-2.84,1.87-7.11,4.16c-7.39-9.07-23.07-25.57-23.55-26.16Z" transform="translate(-45.53 -56.36)"/><path class="cls-3" d="M120.94,341.89c-2,1.36-4,2.8-5.93,4.2s-4,2.66-5.81,4.16-3.68,3.16-5.46,4.81c-.86.79-1.71,1.59-2.54,2.42a22.72,22.72,0,0,0-2.43,2.57c-.06.09.06.19.15.14a26.3,26.3,0,0,0,2.69-2.14l2.81-2.33c1.81-1.5,3.65-3,5.46-4.46s3.45-3.13,5.23-4.65S119,343.49,121,342C121,341.93,121,341.86,120.94,341.89Z" transform="translate(-45.53 -56.36)"/><path class="cls-3" d="M305.61,421.11c-2,2.12-3.88,4.4-5.76,6.64s-3.76,4.5-5.62,6.77c-3.73,4.54-7.48,9.06-11.15,13.65-2,2.52-4,5.06-5.87,7.69-.08.11.11.25.2.15,4-4.3,7.67-8.88,11.38-13.42s7.44-9.1,11.09-13.69c2-2.52,4.06-5,5.9-7.66C305.86,421.14,305.69,421,305.61,421.11Z" transform="translate(-45.53 -56.36)"/><path class="cls-3" d="M230.28,426.88c-5.09-4.11-16.67-12.15-21.95-16s-10.5-7.69-15.83-11.42c-1.53-1.07-3.08-2.12-4.62-3.17s-3.15-2-4.65-3.12c-.09-.06-.17.09-.09.15,1.39,1,2.69,2.16,4.05,3.21l3.9,3c2.56,1.94,5.14,3.84,7.72,5.75q7.83,5.82,15.81,11.46c3,2.12,12.34,8.42,15.43,10.44C230.23,427.31,230.45,427,230.28,426.88Z" transform="translate(-45.53 -56.36)"/><path class="cls-3" d="M263.19,384.63c-4.7-4-15.42-11.68-20.35-15.38s-10-7.51-15-11.23L213,347c-4.82-3.57-9.61-7.2-14.7-10.37-2.79-1.74-5.65-3.35-8.59-4.8a55.21,55.21,0,0,0-8.9-3.76c-.09,0-.14.1-.06.15,2.51,1.44,5.15,2.66,7.7,4.06s5,2.82,7.42,4.34c5,3.15,9.82,6.72,14.61,10.25,10,7.34,19.88,14.71,29.9,22,5.6,4,16.77,12.41,22.6,16.15C263.15,385.05,263.36,384.77,263.19,384.63Z" transform="translate(-45.53 -56.36)"/></g></svg>